<svg xmlns="http://www.w3.org/2000/svg" width="512" height="512" viewBox="0 0 512 512">
  <defs>
    <linearGradient id="bgGrad" x1="0" y1="0" x2="512" y2="512" gradientUnits="userSpaceOnUse">
      <stop offset="0%" stop-color="#059669"/>
      <stop offset="100%" stop-color="#10b981"/>
    </linearGradient>
    <linearGradient id="ballGrad" x1="0.2" y1="0" x2="0.8" y2="1">
      <stop offset="0%" stop-color="#ffffff"/>
      <stop offset="100%" stop-color="#f3f4f6"/>
    </linearGradient>
  </defs>

  <rect width="512" height="512" rx="96" fill="url(#bgGrad)"/>
  <rect x="0" y="0" width="512" height="256" rx="96" fill="white" opacity="0.04"/>

  <!-- Golf ball -->
  <circle cx="248" cy="185" r="70" fill="url(#ballGrad)"/>
  <ellipse cx="248" cy="258" rx="38" ry="5" fill="black" opacity="0.08"/>

  <!-- Dimples -->
  <g fill="#d1d5db" opacity="0.45">
    <circle cx="212" cy="143" r="4.5"/>
    <circle cx="236" cy="133" r="4.5"/>
    <circle cx="260" cy="131" r="4.5"/>
    <circle cx="284" cy="137" r="4.5"/>

    <circle cx="194" cy="167" r="4.5"/>
    <circle cx="218" cy="158" r="4.5"/>
    <circle cx="243" cy="153" r="4.5"/>
    <circle cx="269" cy="154" r="4.5"/>
    <circle cx="294" cy="162" r="4.5"/>

    <circle cx="184" cy="194" r="4.5"/>
    <circle cx="208" cy="187" r="4.5"/>
    <circle cx="234" cy="182" r="4.5"/>
    <circle cx="260" cy="181" r="4.5"/>
    <circle cx="286" cy="184" r="4.5"/>
    <circle cx="310" cy="191" r="4.5"/>

    <circle cx="194" cy="220" r="4.5"/>
    <circle cx="220" cy="213" r="4.5"/>
    <circle cx="246" cy="210" r="4.5"/>
    <circle cx="272" cy="212" r="4.5"/>
    <circle cx="298" cy="218" r="4.5"/>

    <circle cx="214" cy="240" r="4.5"/>
    <circle cx="240" cy="236" r="4.5"/>
    <circle cx="266" cy="237" r="4.5"/>
  </g>

  <!-- Flag pole -->
  <line x1="320" y1="68" x2="320" y2="258" stroke="white" stroke-width="6" stroke-linecap="round"/>

  <!-- Flag -->
  <path d="M320 78 L320 138 L380 123 L320 108" fill="white"/>
  <path d="M320 128 L320 138 L380 123 L320 108" fill="#f3f4f6" opacity="0.3"/>

  <!-- "18Stats" text -->
  <text x="256" y="418" font-family="-apple-system, BlinkMacSystemFont, 'Segoe UI', Roboto, Helvetica, Arial, sans-serif" font-size="76" font-weight="800" fill="white" text-anchor="middle" letter-spacing="2">18Stats</text>
</svg>
