<svg xmlns="http://www.w3.org/2000/svg" width="512" height="512" viewBox="0 0 512 512">
  <defs>
    <linearGradient id="bg" x1="0" y1="0" x2="512" y2="512" gradientUnits="userSpaceOnUse">
      <stop offset="0%" stop-color="#059669"/>
      <stop offset="100%" stop-color="#10b981"/>
    </linearGradient>
  </defs>

  <rect width="512" height="512" rx="96" fill="url(#bg)"/>

  <!-- Golf ball -->
  <circle cx="180" cy="195" r="56" fill="white"/>
  <ellipse cx="180" cy="255" rx="34" ry="5" fill="black" opacity="0.06"/>

  <!-- Dimples (stroke circles) -->
  <g fill="none" stroke="#d1d5db" stroke-width="1.2" opacity="0.6">
    <!-- Row 1 -->
    <circle cx="150" cy="160" r="5"/>
    <circle cx="176" cy="150" r="5"/>
    <circle cx="204" cy="151" r="5"/>
    <circle cx="228" cy="160" r="5"/>
    <!-- Row 2 -->
    <circle cx="133" cy="184" r="5"/>
    <circle cx="157" cy="174" r="5"/>
    <circle cx="183" cy="169" r="5"/>
    <circle cx="210" cy="170" r="5"/>
    <circle cx="234" cy="178" r="5"/>
    <!-- Row 3 -->
    <circle cx="125" cy="210" r="5"/>
    <circle cx="150" cy="202" r="5"/>
    <circle cx="176" cy="197" r="5"/>
    <circle cx="203" cy="196" r="5"/>
    <circle cx="228" cy="199" r="5"/>
    <circle cx="250" cy="206" r="5"/>
    <!-- Row 4 -->
    <circle cx="137" cy="234" r="5"/>
    <circle cx="163" cy="228" r="5"/>
    <circle cx="190" cy="225" r="5"/>
    <circle cx="216" cy="226" r="5"/>
    <circle cx="240" cy="233" r="5"/>
    <!-- Row 5 -->
    <circle cx="158" cy="252" r="5"/>
    <circle cx="185" cy="249" r="5"/>
    <circle cx="212" cy="251" r="5"/>
  </g>

  <!-- Dimple center dots -->
  <g fill="#d1d5db" opacity="0.4">
    <circle cx="150" cy="160" r="1.5"/>
    <circle cx="176" cy="150" r="1.5"/>
    <circle cx="204" cy="151" r="1.5"/>
    <circle cx="228" cy="160" r="1.5"/>
    <circle cx="133" cy="184" r="1.5"/>
    <circle cx="157" cy="174" r="1.5"/>
    <circle cx="183" cy="169" r="1.5"/>
    <circle cx="210" cy="170" r="1.5"/>
    <circle cx="234" cy="178" r="1.5"/>
    <circle cx="125" cy="210" r="1.5"/>
    <circle cx="150" cy="202" r="1.5"/>
    <circle cx="176" cy="197" r="1.5"/>
    <circle cx="203" cy="196" r="1.5"/>
    <circle cx="228" cy="199" r="1.5"/>
    <circle cx="250" cy="206" r="1.5"/>
    <circle cx="137" cy="234" r="1.5"/>
    <circle cx="163" cy="228" r="1.5"/>
    <circle cx="190" cy="225" r="1.5"/>
    <circle cx="216" cy="226" r="1.5"/>
    <circle cx="240" cy="233" r="1.5"/>
    <circle cx="158" cy="252" r="1.5"/>
    <circle cx="185" cy="249" r="1.5"/>
    <circle cx="212" cy="251" r="1.5"/>
  </g>

  <!-- Flag pole -->
  <rect x="348" y="64" width="5" height="210" rx="2.5" fill="white"/>
  <circle cx="350.5" cy="274" r="4.5" fill="white" opacity="0.35"/>

  <!-- Flag -->
  <path d="M350 76 L350 148 L432 130 L350 112" fill="white"/>
  <path d="M350 76 L350 96 L402 84 Z" fill="#f3f4f6" opacity="0.45"/>

  <!-- "18Stats" text -->
  <text x="256" y="430" font-family="'Inter', -apple-system, BlinkMacSystemFont, 'Segoe UI', Roboto, Helvetica, Arial, sans-serif" font-size="76" font-weight="800" fill="white" text-anchor="middle" letter-spacing="3">18Stats</text>
</svg>
